<svg width="142" height="50" viewBox="0 0 142 50" fill="none" xmlns="http://www.w3.org/2000/svg">
<path fill-rule="evenodd" clip-rule="evenodd" d="M67.734 19.517V23.4943H51.8868V20.3409L60.8044 9.71591H52.114V5.73864H67.3648V8.89205L58.4472 19.517H67.734ZM137.399 50L137.342 40.5966L132.798 48.2386H130.583L126.068 40.8239V50H121.438V32.2443H125.556L131.776 42.4716L137.854 32.2443H141.972L142 50H137.399ZM99.9396 31.9034H105.052V45.9375H113.657V50H99.9396V31.9034ZM79.1792 31.9034H84.2912V50H79.1792V31.9034ZM56.9704 35.8523V39.8295H64.9224V43.7784H56.9704V50H51.8584V31.9034H66.0016V35.8523H56.9704ZM137.399 23.4943L137.342 14.0909L132.798 21.733H130.583L126.068 14.3182V23.4659H121.438V5.73864H125.556L131.776 15.9659L137.854 5.73864H141.972L142.028 23.4943H137.399ZM106.812 23.8352C104.938 23.8352 103.262 23.4375 101.757 22.642C100.252 21.8466 99.0876 20.7386 98.2356 19.3466C97.3836 17.9545 96.9576 16.3636 96.9576 14.6023C96.9576 12.8409 97.3836 11.2784 98.2356 9.85796C99.0876 8.46591 100.252 7.35796 101.757 6.5625C103.234 5.76705 104.938 5.36932 106.812 5.36932C108.687 5.36932 110.362 5.76705 111.868 6.5625C113.373 7.35796 114.537 8.46591 115.389 9.85796C116.241 11.25 116.667 12.8409 116.667 14.6023C116.667 16.3636 116.241 17.9261 115.389 19.3466C114.537 20.7386 113.373 21.8466 111.868 22.642C110.362 23.4375 108.658 23.8352 106.812 23.8352ZM106.812 19.6875C107.693 19.6875 108.516 19.4886 109.226 19.0625C109.965 18.6364 110.533 18.0398 110.959 17.2727C111.385 16.5057 111.584 15.625 111.584 14.6307C111.584 13.6364 111.385 12.7557 110.959 11.9886C110.533 11.2216 109.965 10.625 109.226 10.1989C108.488 9.77273 107.693 9.57387 106.812 9.57387C105.932 9.57387 105.108 9.77273 104.398 10.1989C103.66 10.625 103.092 11.2216 102.666 11.9886C102.24 12.7557 102.041 13.6364 102.041 14.6307C102.041 15.625 102.24 16.5057 102.666 17.2727C103.092 18.0398 103.66 18.6364 104.398 19.0625C105.108 19.4602 105.904 19.6875 106.812 19.6875ZM82.36 23.8352C80.4856 23.8352 78.81 23.4375 77.3048 22.642C75.7996 21.8466 74.6352 20.7386 73.7832 19.3466C72.9312 17.9545 72.5052 16.3636 72.5052 14.6023C72.5052 12.8409 72.9312 11.2784 73.7832 9.85796C74.6352 8.46591 75.7996 7.35796 77.3048 6.5625C78.7816 5.76705 80.4856 5.36932 82.36 5.36932C84.2344 5.36932 85.91 5.76705 87.4152 6.5625C88.9204 7.35796 90.0848 8.46591 90.9368 9.85796C91.7888 11.25 92.2148 12.8409 92.2148 14.6023C92.2148 16.3636 91.7888 17.9261 90.9368 19.3466C90.0848 20.7386 88.9204 21.8466 87.4152 22.642C85.91 23.4375 84.206 23.8352 82.36 23.8352ZM82.36 19.6875C83.2404 19.6875 84.064 19.4886 84.774 19.0625C85.5124 18.6364 86.0804 18.0398 86.5064 17.2727C86.9324 16.5057 87.1312 15.625 87.1312 14.6307C87.1312 13.6364 86.9324 12.7557 86.5064 11.9886C86.0804 11.2216 85.5124 10.625 84.774 10.1989C84.0356 9.77273 83.2404 9.57387 82.36 9.57387C81.4796 9.57387 80.656 9.77273 79.946 10.1989C79.2076 10.625 78.6396 11.2216 78.2136 11.9886C77.7876 12.7557 77.5888 13.6364 77.5888 14.6307C77.5888 15.625 77.7876 16.5057 78.2136 17.2727C78.6396 18.0398 79.2076 18.6364 79.946 19.0625C80.656 19.4602 81.4512 19.6875 82.36 19.6875Z" fill="white"/>
<path fill-rule="evenodd" clip-rule="evenodd" d="M0.227783 5.36932H4.14698L2.27258 8.15341H6.22018L8.09458 5.39773H12.1558L10.2814 8.15341H14.229L16.1034 5.39773H20.1646L18.2902 8.15341H22.2378L24.1122 5.39773H28.1734L26.299 8.15341H30.1898L32.0642 5.39773H36.1254L34.251 8.15341H36.6082V17.983H10.9062V28.6932H21.4994L10.9062 39.3182V50H0.227783C0.227783 35.1136 0.227783 20.2557 0.227783 5.36932ZM36.5798 39.2898V28.6648L25.9866 39.2898H36.5798Z" fill="#5D5FEF"/>
<path fill-rule="evenodd" clip-rule="evenodd" d="M0.2272 5.73864L4.1464 5.39773L2.0448 2.78409L0 2.98295L0.2272 5.73864ZM5.964 2.44318L8.094 5.02841L12.1268 4.6875L9.9968 2.10227L5.964 2.44318ZM13.9444 1.76136L16.0744 4.34659L20.0788 3.97727L17.9488 1.39205L13.9444 1.76136ZM21.8964 1.05114L24.0264 3.63636L28.0592 3.29545L25.9292 0.710227L21.8964 1.05114ZM29.82 0.340909L31.95 2.92614L35.9828 2.58523L33.8528 0L29.82 0.340909Z" fill="#5D5FEF"/>
</svg>
